<svg width="25" height="25" viewBox="0 0 25 25" fill="none" xmlns="http://www.w3.org/2000/svg">
<path d="M15.4062 22.6873V16.8748C15.4062 16.6179 15.3042 16.3715 15.1225 16.1898C14.9408 16.0081 14.6944 15.9061 14.4375 15.9061H10.5625C10.3056 15.9061 10.0592 16.0081 9.87749 16.1898C9.69581 16.3715 9.59375 16.6179 9.59375 16.8748V22.6873C9.59375 22.9442 9.49169 23.1906 9.31001 23.3723C9.12833 23.554 8.88193 23.6561 8.625 23.6561H2.8125C2.55557 23.6561 2.30917 23.554 2.12749 23.3723C1.94581 23.1906 1.84375 22.9442 1.84375 22.6873V11.4861C1.84592 11.3521 1.87489 11.2198 1.92896 11.0971C1.98303 10.9744 2.06111 10.8637 2.15859 10.7717L11.8461 1.96816C12.0247 1.80478 12.258 1.71417 12.5 1.71417C12.742 1.71417 12.9753 1.80478 13.1539 1.96816L22.8414 10.7717C22.9389 10.8637 23.017 10.9744 23.071 11.0971C23.1251 11.2198 23.1541 11.3521 23.1562 11.4861V22.6873C23.1562 22.9442 23.0542 23.1906 22.8725 23.3723C22.6908 23.554 22.4444 23.6561 22.1875 23.6561H16.375C16.1181 23.6561 15.8717 23.554 15.69 23.3723C15.5083 23.1906 15.4062 22.9442 15.4062 22.6873Z" stroke="url(#paint0_linear_1_20351)" stroke-width="2" stroke-linecap="round" stroke-linejoin="round"/>
<defs>
<linearGradient id="paint0_linear_1_20351" x1="1.05705" y1="-24.1459" x2="39.4955" y2="-15.4954" gradientUnits="userSpaceOnUse">
<stop stop-color="#FFE986" stop-opacity="0.88"/>
<stop offset="0.670219" stop-color="#BC7E20"/>
<stop offset="1" stop-color="#A74D01"/>
</linearGradient>
</defs>
</svg>
