<svg width="31" height="32" viewBox="0 0 31 32" fill="none" xmlns="http://www.w3.org/2000/svg">
<path d="M6.43363 18.485C8.34993 15.7264 9.47715 13.9491 10.299 12.6356C7.14063 12.915 4.11328 16.8453 4.11328 16.8453L6.19796 18.9301C6.25846 18.776 6.33569 18.6263 6.43363 18.485Z" fill="url(#paint0_linear_1_20355)"/>
<path d="M14.5723 27.3068L16.6556 29.3902C16.6556 29.3902 20.5854 26.3629 20.8648 23.2043C19.5519 24.0259 17.7753 25.1528 15.016 27.0698C14.8764 27.1666 14.7276 27.2457 14.5723 27.3068Z" fill="url(#paint1_linear_1_20355)"/>
<path d="M11.4038 26.2296C11.0462 26.3742 10.6947 26.5277 10.3283 26.6502C9.34957 26.9774 8.34156 27.1984 7.31956 27.3395C6.89117 27.3986 6.45882 27.4487 6.02574 27.4816C6.02987 27.4281 6.03383 27.3746 6.03836 27.3212C6.12773 26.2798 6.28616 25.2438 6.54212 24.2297C6.66546 23.7403 6.82284 23.2645 6.99178 22.7894C7.09684 22.494 7.22793 22.2114 7.36016 21.9287L7.13096 21.6996C6.62122 22.0421 6.17787 22.4748 5.80164 22.9644C5.24467 23.6893 4.8272 24.5106 4.53532 25.376C4.22178 26.3052 4.0348 27.2894 4.00568 28.2705C4.00156 28.4083 3.99209 28.5491 4.01345 28.6859C4.04094 28.8625 4.1185 29.0297 4.23504 29.1652C4.35037 29.2992 4.50217 29.4004 4.67038 29.4547C4.81159 29.5002 4.9536 29.501 5.10006 29.4999C5.99065 29.4924 6.89506 29.3377 7.74755 29.0844C9.30671 28.6211 10.8808 27.7495 11.8034 26.3723L11.5803 26.1494C11.5218 26.1769 11.4632 26.2038 11.4038 26.2296Z" fill="url(#paint2_linear_1_20355)"/>
<path d="M28.7469 4.75316C28.7469 4.75316 28.7468 4.75308 28.7466 4.75292C28.5844 4.59075 28.3645 4.49992 28.1356 4.49992C28.13 4.49992 28.1242 4.5 28.1186 4.50009C25.3357 4.55468 18.4698 5.07523 14.8235 8.72199C13.1682 10.3774 12.6303 11.2391 11.4511 13.1275C10.602 14.4871 9.4394 16.3494 7.31469 19.4078C7.07603 19.7516 7.11752 20.2169 7.41344 20.5127L12.9879 26.0877C13.1551 26.2551 13.3767 26.3411 13.5996 26.3411C13.771 26.3411 13.9432 26.2903 14.0926 26.1866C17.1519 24.0612 19.0133 22.8987 20.3723 22.0498C22.2604 20.8706 23.1222 20.3325 24.7777 18.6769C28.4305 15.0237 28.9473 8.16165 28.9998 5.38088C29.0044 5.14608 28.913 4.91945 28.7469 4.75316ZM22.2918 15.2723C21.1696 16.3946 19.3502 16.3946 18.2279 15.2723C17.1055 14.1499 17.1057 12.3305 18.2281 11.2082C19.3502 10.0858 21.1696 10.0856 22.2918 11.208C23.4138 12.3303 23.414 14.1501 22.2918 15.2723Z" fill="url(#paint3_linear_1_20355)"/>
<defs>
<linearGradient id="paint0_linear_1_20355" x1="3.88495" y1="5.21714" x2="15.0286" y2="7.75442" gradientUnits="userSpaceOnUse">
<stop stop-color="#FFE986" stop-opacity="0.88"/>
<stop offset="0.670219" stop-color="#BC7E20"/>
<stop offset="1" stop-color="#A74D01"/>
</linearGradient>
<linearGradient id="paint1_linear_1_20355" x1="14.34" y1="15.9137" x2="25.6363" y2="18.5761" gradientUnits="userSpaceOnUse">
<stop stop-color="#FFE986" stop-opacity="0.88"/>
<stop offset="0.670219" stop-color="#BC7E20"/>
<stop offset="1" stop-color="#A74D01"/>
</linearGradient>
<linearGradient id="paint2_linear_1_20355" x1="3.71196" y1="12.5062" x2="17.7447" y2="15.7587" gradientUnits="userSpaceOnUse">
<stop stop-color="#FFE986" stop-opacity="0.88"/>
<stop offset="0.670219" stop-color="#BC7E20"/>
<stop offset="1" stop-color="#A74D01"/>
</linearGradient>
<linearGradient id="paint3_linear_1_20355" x1="6.35399" y1="-21.2415" x2="45.6302" y2="-12.1421" gradientUnits="userSpaceOnUse">
<stop stop-color="#FFE986" stop-opacity="0.88"/>
<stop offset="0.670219" stop-color="#BC7E20"/>
<stop offset="1" stop-color="#A74D01"/>
</linearGradient>
</defs>
</svg>
