<svg width="16" height="19" viewBox="0 0 16 19" fill="none" xmlns="http://www.w3.org/2000/svg">
<path fill-rule="evenodd" clip-rule="evenodd" d="M8.09602 0.422852L3.29081 3.17992L5.05744 4.19848L8.09602 2.45993L11.1346 4.19848L12.9012 3.17992L8.09602 0.422852ZM11.1346 5.63848L12.9012 6.65701V8.69408L9.86257 10.4326V13.9097L8.09602 14.9283L6.32939 13.9097V10.4326L3.29081 8.69408V6.65701L5.05744 5.63848L8.09602 7.37698L11.1346 5.63848ZM12.9012 10.1341V12.1712L11.1346 13.1897V11.1526L12.9012 10.1341ZM11.1169 14.6297L14.1555 12.8911V9.41406L15.9221 8.39556V13.9097L11.1169 16.6667V14.6297ZM14.1555 5.937L12.3889 4.91848L14.1555 3.89993L15.9221 4.91848V6.95555L14.1555 7.97411V5.937ZM6.32939 17.4044V15.3673L8.09602 16.3858L9.86257 15.3673V17.4044L8.09602 18.4229L6.32939 17.4044ZM5.05744 13.1897L3.29081 12.1712V10.1341L5.05744 11.1526V13.1897ZM8.09602 5.937L6.32939 4.91848L8.09602 3.89993L9.86257 4.91848L8.09602 5.937ZM3.80313 4.91848L2.03651 5.937V7.97411L0.269897 6.95555V4.91848L2.03651 3.89993L3.80313 4.91848ZM0.269897 8.39556L2.03651 9.41406V12.8911L5.07508 14.6297V16.6667L0.269897 13.9097V8.39556Z" fill="#F0B90B"/>
</svg>
