<svg width="49" height="12" viewBox="0 0 49 12" fill="none" xmlns="http://www.w3.org/2000/svg">
<path d="M7.85165 0.952851V2.64785H5.06165V11.4229H2.96165V2.64785H0.17165V0.952851H7.85165ZM18.0689 0.952851V11.4229H15.9689V6.96785H11.4839V11.4229H9.38388V0.952851H11.4839V5.25785H15.9689V0.952851H18.0689ZM27.7708 4.19285C27.7708 4.75285 27.6358 5.27785 27.3658 5.76785C27.1058 6.25785 26.6908 6.65285 26.1208 6.95285C25.5608 7.25285 24.8508 7.40285 23.9908 7.40285H22.2358V11.4229H20.1358V0.952851H23.9908C24.8008 0.952851 25.4908 1.09285 26.0608 1.37285C26.6308 1.65285 27.0558 2.03785 27.3358 2.52785C27.6258 3.01785 27.7708 3.57285 27.7708 4.19285ZM23.9008 5.70785C24.4808 5.70785 24.9108 5.57785 25.1908 5.31785C25.4708 5.04785 25.6108 4.67285 25.6108 4.19285C25.6108 3.17285 25.0408 2.66285 23.9008 2.66285H22.2358V5.70785H23.9008ZM35.6818 9.42785H31.5118L30.8218 11.4229H28.6168L32.3818 0.937851H34.8268L38.5918 11.4229H36.3718L35.6818 9.42785ZM35.1118 7.74785L33.5968 3.36785L32.0818 7.74785H35.1118ZM48.3241 0.952851L44.7841 7.77785V11.4229H42.6841V7.77785L39.1291 0.952851H41.4991L43.7491 5.73785L45.9841 0.952851H48.3241Z" fill="url(#paint0_linear_1_8466)"/>
<defs>
<linearGradient id="paint0_linear_1_8466" x1="-5.97117" y1="-27.1486" x2="68.7121" y2="21.3015" gradientUnits="userSpaceOnUse">
<stop stop-color="#FFE986" stop-opacity="0.88"/>
<stop offset="0.670219" stop-color="#BC7E20"/>
<stop offset="1" stop-color="#A74D01"/>
</linearGradient>
</defs>
</svg>
