<svg width="30" height="23" viewBox="0 0 30 23" fill="none" xmlns="http://www.w3.org/2000/svg">
<path d="M22.6758 10.0306C24.7854 10.0306 26.4967 8.33574 26.4967 6.24501C26.4967 4.15427 24.7854 2.45944 22.6758 2.45944" stroke="white" stroke-width="1.5" stroke-linecap="round" stroke-linejoin="round"/>
<path d="M24.4324 14.1444C25.0624 14.1875 25.6887 14.276 26.3054 14.4136C27.1623 14.5798 28.1929 14.9279 28.5598 15.6898C28.7939 16.1778 28.7939 16.7459 28.5598 17.2351C28.1941 17.997 27.1623 18.3438 26.3054 18.5185" stroke="white" stroke-width="1.5" stroke-linecap="round" stroke-linejoin="round"/>
<path d="M7.79209 10.0306C5.68251 10.0306 3.97119 8.33574 3.97119 6.24501C3.97119 4.15427 5.68251 2.45944 7.79209 2.45944" stroke="white" stroke-width="1.5" stroke-linecap="round" stroke-linejoin="round"/>
<path d="M6.03553 14.1444C5.40555 14.1875 4.77919 14.276 4.16249 14.4136C3.30562 14.5798 2.27497 14.9279 1.90929 15.6898C1.67395 16.1778 1.67395 16.7459 1.90929 17.2351C2.27376 17.997 3.30562 18.3438 4.16249 18.5185" stroke="white" stroke-width="1.5" stroke-linecap="round" stroke-linejoin="round"/>
<path fill-rule="evenodd" clip-rule="evenodd" d="M15.2278 14.9597C19.5025 14.9597 23.1544 15.6008 23.1544 18.1664C23.1544 20.7307 19.5266 21.3957 15.2278 21.3957C10.9519 21.3957 7.30115 20.7547 7.30115 18.1891C7.30115 15.6235 10.929 14.9597 15.2278 14.9597Z" stroke="white" stroke-width="1.5" stroke-linecap="round" stroke-linejoin="round"/>
<path fill-rule="evenodd" clip-rule="evenodd" d="M15.2278 11.3002C12.4086 11.3002 10.1481 9.05995 10.1481 6.26473C10.1481 3.47071 12.4086 1.23047 15.2278 1.23047C18.047 1.23047 20.3074 3.47071 20.3074 6.26473C20.3074 9.05995 18.047 11.3002 15.2278 11.3002Z" stroke="white" stroke-width="1.5" stroke-linecap="round" stroke-linejoin="round"/>
</svg>
