<svg width="30" height="29" viewBox="0 0 30 29" fill="none" xmlns="http://www.w3.org/2000/svg">
<path d="M1.99498 1.87195H6.80567L10.0288 17.9757C10.1388 18.5294 10.44 19.0268 10.8798 19.3808C11.3195 19.7348 11.8698 19.9228 12.4342 19.912H24.1241C24.6885 19.9228 25.2388 19.7348 25.6785 19.3808C26.1183 19.0268 26.4195 18.5294 26.5295 17.9757L28.4538 7.88531H8.00834M12.819 25.9254C12.819 26.5896 12.2806 27.128 11.6164 27.128C10.9521 27.128 10.4137 26.5896 10.4137 25.9254C10.4137 25.2612 10.9521 24.7227 11.6164 24.7227C12.2806 24.7227 12.819 25.2612 12.819 25.9254ZM26.0484 25.9254C26.0484 26.5896 25.51 27.128 24.8457 27.128C24.1815 27.128 23.6431 26.5896 23.6431 25.9254C23.6431 25.2612 24.1815 24.7227 24.8457 24.7227C25.51 24.7227 26.0484 25.2612 26.0484 25.9254Z" stroke="white" stroke-width="2" stroke-linecap="round" stroke-linejoin="round"/>
</svg>
