<svg width="32" height="32" viewBox="0 0 32 32" fill="none" xmlns="http://www.w3.org/2000/svg">
<path d="M23.1951 6.33381L24.9025 4.74748C25.0882 4.56867 25.1971 4.32466 25.2061 4.06705C25.2151 3.80943 25.1236 3.55839 24.9509 3.36701C24.7758 3.17927 24.5334 3.06871 24.2768 3.05963C24.0202 3.05055 23.7705 3.14368 23.5826 3.31857L21.7177 5.06232C19.9114 3.7634 17.7426 3.06462 15.5177 3.06462C13.2928 3.06462 11.1241 3.7634 9.31774 5.06232L7.465 3.31857C7.27552 3.14354 7.02426 3.05095 6.76651 3.06117C6.50876 3.07139 6.26562 3.18358 6.09059 3.37306C5.91556 3.56255 5.82297 3.8138 5.83319 4.07156C5.84341 4.32931 5.9556 4.57244 6.14508 4.74748L7.8525 6.33381C5.93116 8.3123 4.85799 10.9626 4.86149 13.7205V18.5643C4.86149 21.3905 5.9842 24.1009 7.98263 26.0994C9.98107 28.0978 12.6915 29.2205 15.5177 29.2205C18.344 29.2205 21.0544 28.0978 23.0528 26.0994C25.0513 24.1009 26.174 21.3905 26.174 18.5643V13.7205C26.1769 10.9651 25.1087 8.31635 23.1951 6.33381ZM15.5177 5.00177C17.8291 5.00498 20.0449 5.92459 21.6793 7.55898C23.3137 9.19336 24.2333 11.4092 24.2365 13.7205V15.1736H6.79899V13.7205C6.80219 11.4092 7.7218 9.19336 9.35619 7.55898C10.9906 5.92459 13.2064 5.00498 15.5177 5.00177ZM17.4552 11.783C17.4552 11.4956 17.5405 11.2147 17.7001 10.9757C17.8598 10.7367 18.0868 10.5505 18.3523 10.4405C18.6178 10.3305 18.91 10.3018 19.1919 10.3578C19.4737 10.4139 19.7327 10.5523 19.9359 10.7555C20.1391 10.9587 20.2775 11.2177 20.3336 11.4995C20.3896 11.7814 20.3609 12.0736 20.2509 12.3391C20.1409 12.6046 19.9546 12.8316 19.7157 12.9913C19.4767 13.1509 19.1958 13.2361 18.9084 13.2361C18.523 13.2361 18.1534 13.0831 17.8808 12.8105C17.6083 12.538 17.4552 12.1684 17.4552 11.783ZM10.674 11.783C10.674 11.4956 10.7592 11.2147 10.9189 10.9757C11.0786 10.7367 11.3055 10.5505 11.571 10.4405C11.8366 10.3305 12.1287 10.3018 12.4106 10.3578C12.6925 10.4139 12.9514 10.5523 13.1546 10.7555C13.3579 10.9587 13.4962 11.2177 13.5523 11.4995C13.6084 11.7814 13.5796 12.0736 13.4696 12.3391C13.3596 12.6046 13.1734 12.8316 12.9344 12.9913C12.6955 13.1509 12.4145 13.2361 12.1271 13.2361C11.7417 13.2361 11.3721 13.0831 11.0996 12.8105C10.8271 12.538 10.674 12.1684 10.674 11.783Z" fill="url(#paint0_linear_1_8828)"/>
<defs>
<linearGradient id="paint0_linear_1_8828" x1="4.07478" y1="-27.7742" x2="43.0707" y2="-20.4137" gradientUnits="userSpaceOnUse">
<stop stop-color="#FFE986" stop-opacity="0.88"/>
<stop offset="0.670219" stop-color="#BC7E20"/>
<stop offset="1" stop-color="#A74D01"/>
</linearGradient>
</defs>
</svg>
