<svg width="32" height="32" viewBox="0 0 32 32" fill="none" xmlns="http://www.w3.org/2000/svg">
<path d="M6.2793 22.2812V8.71875" stroke="white" stroke-width="2" stroke-linecap="round" stroke-linejoin="round"/>
<path d="M25.6543 8.71875V22.2812" stroke="white" stroke-width="2" stroke-linecap="round" stroke-linejoin="round"/>
<path d="M12.0918 15.5V17.4375" stroke="white" stroke-width="2" stroke-linecap="round" stroke-linejoin="round"/>
<path d="M15.9668 14.5312V17.4375" stroke="white" stroke-width="2" stroke-linecap="round" stroke-linejoin="round"/>
<path d="M19.8418 13.5625V17.4375" stroke="white" stroke-width="2" stroke-linecap="round" stroke-linejoin="round"/>
<path d="M26.623 4.84375H5.31055C4.77552 4.84375 4.3418 5.27747 4.3418 5.8125V7.75C4.3418 8.28503 4.77552 8.71875 5.31055 8.71875H26.623C27.1581 8.71875 27.5918 8.28503 27.5918 7.75V5.8125C27.5918 5.27747 27.1581 4.84375 26.623 4.84375Z" stroke="white" stroke-width="2" stroke-linecap="round" stroke-linejoin="round"/>
<path d="M15.9668 22.2812V26.1562" stroke="white" stroke-width="2" stroke-linecap="round" stroke-linejoin="round"/>
<path d="M15.9668 30.0312C17.0368 30.0312 17.9043 29.1638 17.9043 28.0938C17.9043 27.0237 17.0368 26.1562 15.9668 26.1562C14.8967 26.1562 14.0293 27.0237 14.0293 28.0938C14.0293 29.1638 14.8967 30.0312 15.9668 30.0312Z" stroke="white" stroke-width="2" stroke-linecap="round" stroke-linejoin="round"/>
<path d="M4.3418 22.2812H27.5918" stroke="white" stroke-width="2" stroke-linecap="round" stroke-linejoin="round"/>
</svg>
