<svg width="32" height="31" viewBox="0 0 32 31" fill="none" xmlns="http://www.w3.org/2000/svg">
<path d="M23.7168 24.2188V27.125" stroke="white" stroke-width="2" stroke-linecap="round" stroke-linejoin="round"/>
<path d="M8.2168 24.2188V27.125" stroke="white" stroke-width="2" stroke-linecap="round" stroke-linejoin="round"/>
<path d="M26.623 5.8125H5.31055C4.77552 5.8125 4.3418 6.24622 4.3418 6.78125V23.25C4.3418 23.785 4.77552 24.2188 5.31055 24.2188H26.623C27.1581 24.2188 27.5918 23.785 27.5918 23.25V6.78125C27.5918 6.24622 27.1581 5.8125 26.623 5.8125Z" stroke="white" stroke-width="2" stroke-linecap="round" stroke-linejoin="round"/>
<path d="M18.873 17.4375C19.9431 17.4375 20.8105 16.5701 20.8105 15.5C20.8105 14.4299 19.9431 13.5625 18.873 13.5625C17.803 13.5625 16.9355 14.4299 16.9355 15.5C16.9355 16.5701 17.803 17.4375 18.873 17.4375Z" fill="white"/>
<path d="M18.873 15.5H27.5918" stroke="white" stroke-width="2" stroke-linecap="round" stroke-linejoin="round"/>
<path d="M18.873 20.3438C21.5482 20.3438 23.7168 18.1751 23.7168 15.5C23.7168 12.8249 21.5482 10.6562 18.873 10.6562C16.1979 10.6562 14.0293 12.8249 14.0293 15.5C14.0293 18.1751 16.1979 20.3438 18.873 20.3438Z" stroke="white" stroke-width="2" stroke-linecap="round" stroke-linejoin="round"/>
</svg>
