<svg width="167" height="60" viewBox="0 0 167 60" fill="none" xmlns="http://www.w3.org/2000/svg">
<rect x="12.7603" y="14.71" width="153.58" height="30.58" rx="15.29" fill="#151619" stroke="url(#paint0_angular_1_11277)" stroke-width="0.58"/>
<circle cx="30.0503" cy="30" r="5" fill="#A2ADB8"/>
<g filter="url(#filter0_d_1_11277)">
<circle cx="30.0501" cy="30" r="3.33333" fill="url(#paint1_radial_1_11277)"/>
</g>
<g filter="url(#filter1_f_1_11277)">
<mask id="mask0_1_11277" style="mask-type:alpha" maskUnits="userSpaceOnUse" x="26" y="26" width="8" height="8">
<path d="M33.36 28.2566C33.3973 28.3078 33.393 28.3652 33.3262 28.4279C33.2398 28.7959 33.0664 29.272 33.2014 29.5864C33.4938 30.2677 32.8875 31.1047 32.702 32.4478C32.5165 33.7909 31.3752 33.2362 28.6289 33.1291C25.8825 33.022 26.8669 30.6278 26.981 28.9927C27.0724 27.6847 27.9179 27.7924 28.3293 28.0098C28.0962 28.6813 27.7172 30.0594 28.0653 30.1996C28.5005 30.3748 28.8286 31.0658 28.7573 31.4843C28.6859 31.9028 29.1924 31.2896 31.0185 31.7276C32.4795 32.078 32.488 31.1404 32.3097 30.6278C32.8019 30.2969 33.0444 29.5864 32.7662 29.5864C32.5437 29.5864 30.5287 29.3529 29.5491 29.2361C29.2828 29.0901 28.87 28.837 29.3493 28.9927C29.9485 29.1874 30.1411 29.2945 32.3097 28.7981C32.908 28.6612 33.2107 28.5365 33.3262 28.4279C33.3404 28.3675 33.3523 28.31 33.36 28.2566Z" fill="#F91B3F"/>
<path d="M30.0425 27.1375C29.2721 27.0908 29.5075 26.8326 29.7215 26.7093C29.3221 26.4465 27.6172 27.4685 28.516 27.8675C29.4148 28.2665 31.8473 27.8772 31.8901 27.8675C31.9329 27.8578 32.8602 27.6728 32.6391 27.1375C32.418 26.6023 31.7046 26.7093 31.5976 26.904C31.4906 27.0986 31.0056 27.1959 30.0425 27.1375Z" fill="#FCFC78"/>
</mask>
<g mask="url(#mask0_1_11277)">
<g filter="url(#filter2_f_1_11277)">
<circle cx="30.0501" cy="30" r="3.33333" fill="url(#paint2_radial_1_11277)"/>
</g>
</g>
</g>
<path d="M127.085 34.07C126.625 34.07 126.212 33.99 125.845 33.83C125.485 33.6633 125.202 33.4367 124.995 33.15C124.788 32.8567 124.682 32.52 124.675 32.14H125.645C125.678 32.4667 125.812 32.7433 126.045 32.97C126.285 33.19 126.632 33.3 127.085 33.3C127.518 33.3 127.858 33.1933 128.105 32.98C128.358 32.76 128.485 32.48 128.485 32.14C128.485 31.8733 128.412 31.6567 128.265 31.49C128.118 31.3233 127.935 31.1967 127.715 31.11C127.495 31.0233 127.198 30.93 126.825 30.83C126.365 30.71 125.995 30.59 125.715 30.47C125.442 30.35 125.205 30.1633 125.005 29.91C124.812 29.65 124.715 29.3033 124.715 28.87C124.715 28.49 124.812 28.1533 125.005 27.86C125.198 27.5667 125.468 27.34 125.815 27.18C126.168 27.02 126.572 26.94 127.025 26.94C127.678 26.94 128.212 27.1033 128.625 27.43C129.045 27.7567 129.282 28.19 129.335 28.73H128.335C128.302 28.4633 128.162 28.23 127.915 28.03C127.668 27.8233 127.342 27.72 126.935 27.72C126.555 27.72 126.245 27.82 126.005 28.02C125.765 28.2133 125.645 28.4867 125.645 28.84C125.645 29.0933 125.715 29.3 125.855 29.46C126.002 29.62 126.178 29.7433 126.385 29.83C126.598 29.91 126.895 30.0033 127.275 30.11C127.735 30.2367 128.105 30.3633 128.385 30.49C128.665 30.61 128.905 30.8 129.105 31.06C129.305 31.3133 129.405 31.66 129.405 32.1C129.405 32.44 129.315 32.76 129.135 33.06C128.955 33.36 128.688 33.6033 128.335 33.79C127.982 33.9767 127.565 34.07 127.085 34.07ZM133.804 34L131.654 31.58V34H130.744V26.6H131.654V30.95L133.764 28.52H135.034L132.454 31.25L135.044 34H133.804ZM140.611 28.52L137.311 36.58H136.371L137.451 33.94L135.241 28.52H136.251L137.971 32.96L139.671 28.52H140.611ZM144.195 28.42C144.862 28.42 145.402 28.6233 145.815 29.03C146.229 29.43 146.435 30.01 146.435 30.77V34H145.535V30.9C145.535 30.3533 145.399 29.9367 145.125 29.65C144.852 29.3567 144.479 29.21 144.005 29.21C143.525 29.21 143.142 29.36 142.855 29.66C142.575 29.96 142.435 30.3967 142.435 30.97V34H141.525V28.52H142.435V29.3C142.615 29.02 142.859 28.8033 143.165 28.65C143.479 28.4967 143.822 28.42 144.195 28.42ZM152.922 31.05C152.922 31.2233 152.912 31.4067 152.892 31.6H148.512C148.545 32.14 148.729 32.5633 149.062 32.87C149.402 33.17 149.812 33.32 150.292 33.32C150.685 33.32 151.012 33.23 151.272 33.05C151.539 32.8633 151.725 32.6167 151.832 32.31H152.812C152.665 32.8367 152.372 33.2667 151.932 33.6C151.492 33.9267 150.945 34.09 150.292 34.09C149.772 34.09 149.305 33.9733 148.892 33.74C148.485 33.5067 148.165 33.1767 147.932 32.75C147.699 32.3167 147.582 31.8167 147.582 31.25C147.582 30.6833 147.695 30.1867 147.922 29.76C148.149 29.3333 148.465 29.0067 148.872 28.78C149.285 28.5467 149.759 28.43 150.292 28.43C150.812 28.43 151.272 28.5433 151.672 28.77C152.072 28.9967 152.379 29.31 152.592 29.71C152.812 30.1033 152.922 30.55 152.922 31.05ZM151.982 30.86C151.982 30.5133 151.905 30.2167 151.752 29.97C151.599 29.7167 151.389 29.5267 151.122 29.4C150.862 29.2667 150.572 29.2 150.252 29.2C149.792 29.2 149.399 29.3467 149.072 29.64C148.752 29.9333 148.569 30.34 148.522 30.86H151.982ZM155.233 29.27V32.5C155.233 32.7667 155.29 32.9567 155.403 33.07C155.516 33.1767 155.713 33.23 155.993 33.23H156.663V34H155.843C155.336 34 154.956 33.8833 154.703 33.65C154.45 33.4167 154.323 33.0333 154.323 32.5V29.27H153.613V28.52H154.323V27.14H155.233V28.52H156.663V29.27H155.233Z" fill="url(#paint3_linear_1_11277)"/>
<path d="M127.085 34.07C126.625 34.07 126.212 33.99 125.845 33.83C125.485 33.6633 125.202 33.4367 124.995 33.15C124.788 32.8567 124.682 32.52 124.675 32.14H125.645C125.678 32.4667 125.812 32.7433 126.045 32.97C126.285 33.19 126.632 33.3 127.085 33.3C127.518 33.3 127.858 33.1933 128.105 32.98C128.358 32.76 128.485 32.48 128.485 32.14C128.485 31.8733 128.412 31.6567 128.265 31.49C128.118 31.3233 127.935 31.1967 127.715 31.11C127.495 31.0233 127.198 30.93 126.825 30.83C126.365 30.71 125.995 30.59 125.715 30.47C125.442 30.35 125.205 30.1633 125.005 29.91C124.812 29.65 124.715 29.3033 124.715 28.87C124.715 28.49 124.812 28.1533 125.005 27.86C125.198 27.5667 125.468 27.34 125.815 27.18C126.168 27.02 126.572 26.94 127.025 26.94C127.678 26.94 128.212 27.1033 128.625 27.43C129.045 27.7567 129.282 28.19 129.335 28.73H128.335C128.302 28.4633 128.162 28.23 127.915 28.03C127.668 27.8233 127.342 27.72 126.935 27.72C126.555 27.72 126.245 27.82 126.005 28.02C125.765 28.2133 125.645 28.4867 125.645 28.84C125.645 29.0933 125.715 29.3 125.855 29.46C126.002 29.62 126.178 29.7433 126.385 29.83C126.598 29.91 126.895 30.0033 127.275 30.11C127.735 30.2367 128.105 30.3633 128.385 30.49C128.665 30.61 128.905 30.8 129.105 31.06C129.305 31.3133 129.405 31.66 129.405 32.1C129.405 32.44 129.315 32.76 129.135 33.06C128.955 33.36 128.688 33.6033 128.335 33.79C127.982 33.9767 127.565 34.07 127.085 34.07ZM133.804 34L131.654 31.58V34H130.744V26.6H131.654V30.95L133.764 28.52H135.034L132.454 31.25L135.044 34H133.804ZM140.611 28.52L137.311 36.58H136.371L137.451 33.94L135.241 28.52H136.251L137.971 32.96L139.671 28.52H140.611ZM144.195 28.42C144.862 28.42 145.402 28.6233 145.815 29.03C146.229 29.43 146.435 30.01 146.435 30.77V34H145.535V30.9C145.535 30.3533 145.399 29.9367 145.125 29.65C144.852 29.3567 144.479 29.21 144.005 29.21C143.525 29.21 143.142 29.36 142.855 29.66C142.575 29.96 142.435 30.3967 142.435 30.97V34H141.525V28.52H142.435V29.3C142.615 29.02 142.859 28.8033 143.165 28.65C143.479 28.4967 143.822 28.42 144.195 28.42ZM152.922 31.05C152.922 31.2233 152.912 31.4067 152.892 31.6H148.512C148.545 32.14 148.729 32.5633 149.062 32.87C149.402 33.17 149.812 33.32 150.292 33.32C150.685 33.32 151.012 33.23 151.272 33.05C151.539 32.8633 151.725 32.6167 151.832 32.31H152.812C152.665 32.8367 152.372 33.2667 151.932 33.6C151.492 33.9267 150.945 34.09 150.292 34.09C149.772 34.09 149.305 33.9733 148.892 33.74C148.485 33.5067 148.165 33.1767 147.932 32.75C147.699 32.3167 147.582 31.8167 147.582 31.25C147.582 30.6833 147.695 30.1867 147.922 29.76C148.149 29.3333 148.465 29.0067 148.872 28.78C149.285 28.5467 149.759 28.43 150.292 28.43C150.812 28.43 151.272 28.5433 151.672 28.77C152.072 28.9967 152.379 29.31 152.592 29.71C152.812 30.1033 152.922 30.55 152.922 31.05ZM151.982 30.86C151.982 30.5133 151.905 30.2167 151.752 29.97C151.599 29.7167 151.389 29.5267 151.122 29.4C150.862 29.2667 150.572 29.2 150.252 29.2C149.792 29.2 149.399 29.3467 149.072 29.64C148.752 29.9333 148.569 30.34 148.522 30.86H151.982ZM155.233 29.27V32.5C155.233 32.7667 155.29 32.9567 155.403 33.07C155.516 33.1767 155.713 33.23 155.993 33.23H156.663V34H155.843C155.336 34 154.956 33.8833 154.703 33.65C154.45 33.4167 154.323 33.0333 154.323 32.5V29.27H153.613V28.52H154.323V27.14H155.233V28.52H156.663V29.27H155.233Z" fill="#AEAEAE" fill-opacity="0.05"/>
<path fill-rule="evenodd" clip-rule="evenodd" d="M67.3158 27.7761H62.0975C62.0073 27.7766 61.9208 27.8162 61.8572 27.8862C61.7934 27.9561 61.7573 28.0509 61.7569 28.1498V32.7466C61.7574 32.8454 61.7935 32.9402 61.8573 33.0101C61.921 33.08 62.0073 33.1197 62.0975 33.1204H67.3158V33.8989H62.0975C61.9597 33.8996 61.8232 33.8704 61.696 33.8129C61.5687 33.7553 61.453 33.6708 61.3557 33.564C61.2582 33.457 61.1812 33.3301 61.1287 33.1904C61.0763 33.0506 61.0497 32.9009 61.0503 32.7498V28.1532C61.0497 28.002 61.0763 27.8522 61.1287 27.7125C61.1812 27.5728 61.2582 27.4458 61.3557 27.339C61.453 27.2321 61.5687 27.1475 61.696 27.09C61.8232 27.0325 61.9597 27.0032 62.0975 27.0039H67.3158V27.7761ZM77.1144 27V27.7787H72.0888V30.0543H76.1281V30.8395H72.0882V33.119H77.1138V33.8977H71.3787V27H77.1144Z" fill="white"/>
<path d="M87.4636 28.1589V30.1796C87.4644 30.3306 87.4377 30.4803 87.3851 30.6201C87.3324 30.7597 87.2557 30.8866 87.1581 30.9934C87.061 31.1004 86.9452 31.1849 86.8179 31.2425C86.6906 31.3 86.554 31.3294 86.4166 31.3287H85.4571L87.4287 33.895H86.4951L84.5318 31.3287H82.2259C82.1119 31.3224 81.9981 31.3097 81.8853 31.2905V33.895H81.1758V27.0098H86.4111C86.5489 27.0091 86.6851 27.0385 86.8124 27.096C86.9401 27.1535 87.0555 27.2381 87.1531 27.345C87.2502 27.4518 87.3273 27.5788 87.3796 27.7184C87.4322 27.8582 87.459 28.0079 87.4585 28.1589H87.4636ZM82.2282 30.5435H86.4166C86.4603 30.5442 86.5036 30.5353 86.5443 30.5171C86.5846 30.499 86.6215 30.4723 86.6525 30.4383C86.6835 30.4044 86.7076 30.3641 86.7242 30.3195C86.7407 30.2752 86.7488 30.2274 86.7484 30.1796V28.1589C86.7488 28.1103 86.7407 28.0619 86.7245 28.0167C86.7081 27.9715 86.6835 27.9303 86.6525 27.8955C86.6224 27.8599 86.5859 27.8316 86.5451 27.8126C86.5044 27.7935 86.4603 27.7843 86.4161 27.7851H82.2277C82.1375 27.7857 82.0511 27.8252 81.9874 27.8952C81.9236 27.9652 81.8875 28.0599 81.8871 28.1589V30.1796C81.8861 30.2281 81.8946 30.2764 81.912 30.3211C81.9293 30.3659 81.9551 30.4061 81.9876 30.4391C82.0194 30.4733 82.057 30.5 82.0983 30.5179C82.1397 30.536 82.1838 30.5446 82.2282 30.5435Z" fill="white"/>
<path fill-rule="evenodd" clip-rule="evenodd" d="M91.2153 27H97.4955V27.7787H94.7168V33.8983H94.0071V27.7787H91.2153V27ZM101.302 33.895V27H102.012V33.895H101.302ZM111.441 27H112.349L109.723 30.4475L112.357 33.895H111.441L109.103 30.8402H107.078V33.895H106.364V27H107.08V30.0543H109.104L111.441 27Z" fill="white"/>
<path fill-rule="evenodd" clip-rule="evenodd" d="M56.2656 24.4427L56.3463 24.9498C56.4098 25.4216 56.4393 25.8977 56.4344 26.374C56.4339 27.4267 56.3117 28.4754 56.0706 29.4979C55.7445 30.8867 55.1766 32.2019 54.3949 33.3781C53.4916 34.7289 52.1854 36.0576 50.2816 37.1252L50.0487 37.2556L49.8158 37.1252C47.9119 36.0576 46.6064 34.7289 45.7025 33.3781C44.9208 32.2019 44.3529 30.8867 44.0268 29.4979C43.7857 28.4756 43.6636 27.4271 43.663 26.3746C43.6581 25.8982 43.6875 25.4222 43.7511 24.9504L43.8318 24.4433C43.8387 24.4019 43.8376 24.3596 43.8287 24.3186C43.8198 24.2777 43.8031 24.239 43.7797 24.2048C43.7564 24.1706 43.7267 24.1415 43.6925 24.1193C43.6582 24.097 43.6201 24.082 43.5803 24.0752C43.5405 24.0683 43.4997 24.0698 43.4604 24.0793C43.4211 24.0889 43.384 24.1065 43.3513 24.1311C43.3186 24.1556 43.2908 24.1867 43.2697 24.2224C43.2486 24.2582 43.2344 24.298 43.2281 24.3394L43.1475 24.8465C43.0781 25.3526 43.0458 25.8634 43.0508 26.3746C43.0512 27.4789 43.1792 28.5792 43.4322 29.6517C43.7766 31.1163 44.376 32.5031 45.2009 33.7431C46.1545 35.17 47.5375 36.573 49.5279 37.6867L49.906 37.8983C49.9506 37.9234 50.0005 37.9365 50.0511 37.9365C50.1017 37.9365 50.1516 37.9234 50.1961 37.8983L50.5738 37.6867C52.5621 36.5725 53.9456 35.17 54.9008 33.7431C55.7253 32.5031 56.3243 31.1166 56.6683 29.6522C56.9214 28.5796 57.0494 27.4794 57.0498 26.3751C57.0548 25.864 57.0225 25.3532 56.9531 24.8471L56.8724 24.34C56.8662 24.2985 56.852 24.2588 56.8309 24.223C56.8097 24.1873 56.7821 24.1562 56.7493 24.1316C56.7166 24.1071 56.6795 24.0895 56.6402 24.0799C56.6009 24.0703 56.5601 24.0689 56.5203 24.0757C56.4805 24.0826 56.4423 24.0976 56.4081 24.1198C56.3739 24.1421 56.3442 24.1711 56.3208 24.2054C56.2975 24.2396 56.2809 24.2783 56.2719 24.3192C56.263 24.3601 56.262 24.4025 56.2689 24.4438L56.2656 24.4427Z" fill="white"/>
<path fill-rule="evenodd" clip-rule="evenodd" d="M45.504 24.0973L50.0501 22.6532L54.6977 24.1284C54.7755 24.1526 54.8594 24.1438 54.931 24.1038C55.0025 24.0639 55.0559 23.9961 55.0794 23.9153C55.1031 23.8345 55.0949 23.7473 55.0569 23.6727C55.0187 23.5982 54.9537 23.5423 54.8762 23.5175L50.1393 22.0139C50.0812 21.9954 50.019 21.9954 49.9609 22.0139L45.3251 23.4852C45.2863 23.4973 45.2503 23.5172 45.2189 23.5437C45.1876 23.5703 45.1616 23.6031 45.1425 23.6401C45.1234 23.6771 45.1115 23.7178 45.1075 23.7596C45.1035 23.8014 45.1075 23.8437 45.1192 23.8839C45.131 23.9241 45.1502 23.9615 45.1759 23.994C45.2016 24.0265 45.2332 24.0533 45.2689 24.0731C45.3046 24.0928 45.3437 24.105 45.384 24.109C45.4242 24.1129 45.4649 24.1086 45.5035 24.0962L45.504 24.0973Z" fill="white"/>
<path fill-rule="evenodd" clip-rule="evenodd" d="M43.2584 24.5361L49.776 37.7623C49.8014 37.8141 49.84 37.8574 49.8875 37.888C49.935 37.9186 49.9896 37.935 50.0454 37.9354C50.1012 37.9359 50.1561 37.9206 50.2041 37.891C50.2521 37.8613 50.2914 37.8185 50.3177 37.7673L54.2924 30.0383L54.2982 30.0261L56.8422 24.5272C56.8767 24.4513 56.8809 24.3644 56.8541 24.2852C56.8272 24.2061 56.7715 24.1411 56.6988 24.1046C56.6261 24.068 56.5426 24.0627 56.4662 24.0898C56.3898 24.1169 56.3268 24.1743 56.2909 24.2495L53.7512 29.7439L50.0575 36.9313L43.8028 24.2451C43.7848 24.2074 43.7598 24.1738 43.7292 24.1463C43.6986 24.1188 43.663 24.0978 43.6246 24.0847C43.5861 24.0715 43.5456 24.0664 43.5052 24.0697C43.4649 24.073 43.4256 24.0845 43.3895 24.1037C43.3535 24.1229 43.3215 24.1493 43.2954 24.1814C43.2693 24.2136 43.2496 24.2508 43.2374 24.2909C43.2252 24.331 43.2208 24.3732 43.2244 24.4151C43.228 24.4571 43.2396 24.4978 43.2584 24.535V24.5361Z" fill="white"/>
<path fill-rule="evenodd" clip-rule="evenodd" d="M46.7116 30.1846H53.9593C54.0404 30.1846 54.1181 30.1511 54.1755 30.0914C54.2329 30.0318 54.2651 29.951 54.2651 29.8665C54.2651 29.7823 54.2329 29.7014 54.1755 29.6417C54.1181 29.5821 54.0404 29.5486 53.9593 29.5486H46.7116C46.6305 29.5486 46.5527 29.5821 46.4953 29.6417C46.438 29.7014 46.4058 29.7823 46.4058 29.8665C46.4058 29.951 46.438 30.0318 46.4953 30.0914C46.5527 30.1511 46.6305 30.1846 46.7116 30.1846Z" fill="white"/>
<path d="M118.05 36V24" stroke="url(#paint4_angular_1_11277)" stroke-width="0.68" stroke-linecap="round"/>
<path d="M118.05 36V24" stroke="white" stroke-opacity="0.2" stroke-width="0.68" stroke-linecap="round"/>
<defs>
<filter id="filter0_d_1_11277" x="0.716797" y="0.666687" width="58.6665" height="58.6667" filterUnits="userSpaceOnUse" color-interpolation-filters="sRGB">
<feFlood flood-opacity="0" result="BackgroundImageFix"/>
<feColorMatrix in="SourceAlpha" type="matrix" values="0 0 0 0 0 0 0 0 0 0 0 0 0 0 0 0 0 0 127 0" result="hardAlpha"/>
<feMorphology radius="2" operator="dilate" in="SourceAlpha" result="effect1_dropShadow_1_11277"/>
<feOffset/>
<feGaussianBlur stdDeviation="12"/>
<feComposite in2="hardAlpha" operator="out"/>
<feColorMatrix type="matrix" values="0 0 0 0 0.952941 0 0 0 0 0.376471 0 0 0 0 0.129412 0 0 0 1 0"/>
<feBlend mode="normal" in2="BackgroundImageFix" result="effect1_dropShadow_1_11277"/>
<feBlend mode="normal" in="SourceGraphic" in2="effect1_dropShadow_1_11277" result="shape"/>
</filter>
<filter id="filter1_f_1_11277" x="6.7168" y="6.66669" width="46.6665" height="46.6666" filterUnits="userSpaceOnUse" color-interpolation-filters="sRGB">
<feFlood flood-opacity="0" result="BackgroundImageFix"/>
<feBlend mode="normal" in="SourceGraphic" in2="BackgroundImageFix" result="shape"/>
<feGaussianBlur stdDeviation="10" result="effect1_foregroundBlur_1_11277"/>
</filter>
<filter id="filter2_f_1_11277" x="22.7168" y="22.6667" width="14.6665" height="14.6667" filterUnits="userSpaceOnUse" color-interpolation-filters="sRGB">
<feFlood flood-opacity="0" result="BackgroundImageFix"/>
<feBlend mode="normal" in="SourceGraphic" in2="BackgroundImageFix" result="shape"/>
<feGaussianBlur stdDeviation="2" result="effect1_foregroundBlur_1_11277"/>
</filter>
<radialGradient id="paint0_angular_1_11277" cx="0" cy="0" r="1" gradientUnits="userSpaceOnUse" gradientTransform="translate(87.2553 30) rotate(90) scale(15 74.205)">
<stop offset="0.0729167" stop-color="#E3A455"/>
<stop offset="0.244792" stop-color="#F6DBA6"/>
<stop offset="0.752631" stop-color="#FFEBC4"/>
<stop offset="0.781661" stop-color="#F0BE79"/>
<stop offset="0.799951" stop-color="#8F653B"/>
<stop offset="0.850033" stop-color="#BA7F3B"/>
<stop offset="0.911287" stop-color="#EEBC70"/>
<stop offset="0.925707" stop-color="#B3874F"/>
</radialGradient>
<radialGradient id="paint1_radial_1_11277" cx="0" cy="0" r="1" gradientUnits="userSpaceOnUse" gradientTransform="translate(29.8801 27.1769) rotate(53.3659) scale(4.95923)">
<stop offset="0.177352" stop-color="white"/>
<stop offset="0.507534" stop-color="#8EFF1D"/>
<stop offset="1" stop-color="#6CEF05"/>
</radialGradient>
<radialGradient id="paint2_radial_1_11277" cx="0" cy="0" r="1" gradientUnits="userSpaceOnUse" gradientTransform="translate(29.812 26.8027) rotate(84.4725) scale(5.29674)">
<stop stop-color="white"/>
<stop offset="0.208685" stop-color="#A8FB81"/>
<stop offset="1" stop-color="#6BF516"/>
</radialGradient>
<linearGradient id="paint3_linear_1_11277" x1="155.74" y1="34.9294" x2="154.983" y2="23.165" gradientUnits="userSpaceOnUse">
<stop stop-color="#FFD79F"/>
<stop offset="1" stop-color="#85663E"/>
</linearGradient>
<radialGradient id="paint4_angular_1_11277" cx="0" cy="0" r="1" gradientUnits="userSpaceOnUse" gradientTransform="translate(117.565 30) rotate(-90) scale(6 0.485)">
<stop offset="0.0729167" stop-color="#E3A455"/>
<stop offset="0.244792" stop-color="#F6DBA6"/>
<stop offset="0.752631" stop-color="#FFEBC4"/>
<stop offset="0.781661" stop-color="#F0BE79"/>
<stop offset="0.799951" stop-color="#8F653B"/>
<stop offset="0.821649" stop-color="#673D22"/>
<stop offset="0.850033" stop-color="#BA7F3B"/>
<stop offset="0.911287" stop-color="#EEBC70"/>
<stop offset="0.925707" stop-color="#B3874F"/>
<stop offset="0.948982" stop-color="#3F1F0F"/>
</radialGradient>
</defs>
</svg>
