<svg width="32" height="32" viewBox="0 0 32 32" fill="none" xmlns="http://www.w3.org/2000/svg">
<path d="M16.1453 16.4104V4.7854" stroke="white" stroke-width="2" stroke-linecap="round" stroke-linejoin="round"/>
<path d="M26.2082 10.5979L6.08243 22.2229" stroke="white" stroke-width="2" stroke-linecap="round" stroke-linejoin="round"/>
<path d="M4.71389 18.5417C4.58173 17.839 4.51685 17.1254 4.52014 16.4104C4.51861 14.0062 5.26331 11.6608 6.65148 9.69782C8.03965 7.73487 10.0028 6.25115 12.2701 5.45142V14.1702L4.71389 18.5417Z" stroke="white" stroke-width="2" stroke-linecap="round" stroke-linejoin="round"/>
<path d="M16.1452 4.7854C18.1821 4.78563 20.1833 5.3211 21.9482 6.33818C23.7131 7.35526 25.1798 8.81823 26.2014 10.5806C27.2229 12.3429 27.7634 14.3427 27.7688 16.3797C27.7742 18.4167 27.2442 20.4193 26.232 22.187C25.2198 23.9547 23.7609 25.4254 22.0014 26.4518C20.2418 27.4782 18.2435 28.0242 16.2066 28.0352C14.1696 28.0462 12.1655 27.5218 10.395 26.5144C8.62453 25.5071 7.14982 24.0522 6.11859 22.2956" stroke="white" stroke-width="2" stroke-linecap="round" stroke-linejoin="round"/>
</svg>
