<svg width="32" height="32" viewBox="0 0 32 32" fill="none" xmlns="http://www.w3.org/2000/svg">
<path d="M5.88184 16.8212V20.6284C5.88175 20.9951 5.97564 21.3558 6.15456 21.6759C6.33349 21.996 6.59146 22.2649 6.90387 22.4569L15.3126 27.6252C15.4592 27.7139 15.6266 27.7621 15.7978 27.7649C15.969 27.7678 16.138 27.7252 16.2874 27.6415C16.4368 27.5578 16.5614 27.436 16.6484 27.2885C16.7354 27.141 16.7817 26.973 16.7827 26.8018V22.6095C16.7823 22.341 16.7114 22.0773 16.5771 21.8449C16.4428 21.6124 16.2498 21.4192 16.0174 21.2848L7.13152 16.1044C7.00533 16.0307 6.86193 15.9915 6.7158 15.991C6.56966 15.9904 6.42596 16.0284 6.29919 16.1011C6.17243 16.1738 6.06709 16.2787 5.99381 16.4051C5.92054 16.5316 5.88191 16.6751 5.88184 16.8212Z" fill="white"/>
<path d="M9.94824 10.4772V15.7012L17.9404 20.5086C18.1214 20.6173 18.2712 20.7711 18.3752 20.9548C18.4792 21.1386 18.5338 21.3462 18.5338 21.5573V26.3865L20.8539 25.023V16.3769C20.8541 16.1108 20.7844 15.8492 20.6518 15.6185C20.5192 15.3877 20.3283 15.1958 20.0983 15.0618L11.0938 9.81848C10.9779 9.75131 10.8464 9.71582 10.7125 9.71558C10.5786 9.71534 10.4469 9.75036 10.3308 9.81713C10.2147 9.88389 10.1182 9.98004 10.0511 10.0959C9.98393 10.2118 9.94846 10.3433 9.94824 10.4772Z" fill="white"/>
<path d="M13.8232 4.31853V9.43837L21.8857 14.2603C22.0665 14.3692 22.2162 14.523 22.3201 14.7067C22.4241 14.8904 22.4788 15.0979 22.479 15.309V24.0471L24.4674 22.8846C24.5246 22.8513 24.5722 22.8036 24.6053 22.7463C24.6384 22.6889 24.656 22.6239 24.6563 22.5577L24.6999 10.2812C24.6997 10.016 24.63 9.75558 24.4979 9.52571C24.3657 9.29584 24.1757 9.10458 23.9467 8.97095L14.8961 3.69611C14.7867 3.63671 14.6638 3.60645 14.5393 3.60823C14.4147 3.61001 14.2928 3.64376 14.185 3.70625C14.0773 3.76875 13.9875 3.85788 13.9241 3.9651C13.8607 4.07232 13.826 4.19402 13.8232 4.31853Z" fill="white"/>
</svg>
