<svg width="11" height="15" viewBox="0 0 11 15" fill="none" xmlns="http://www.w3.org/2000/svg">
<path d="M7.0055 13.9244C5.98166 14.2156 4.89753 14.205 3.89367 13.894C2.8898 13.583 2.01251 12.9859 1.37554 12.1802C0.738567 11.3745 0.371295 10.3974 0.321342 9.37543C0.271389 8.35349 0.541058 7.3339 1.09539 6.44886C1.77483 5.36342 3.59749 3.23861 2.32735 0.0680168C7.15847 1.51922 9.94583 3.55182 6.97374 8.63559C7.65499 8.4418 8.67687 8.1511 9.92081 6.05247C10.2485 6.5053 10.5596 7.00378 10.7206 7.56971C11.0904 8.8696 10.9067 10.2694 10.21 11.4611C9.51329 12.6529 8.3606 13.5389 7.0055 13.9244Z" fill="url(#paint0_linear_1_8607)"/>
<defs>
<linearGradient id="paint0_linear_1_8607" x1="-7.18816" y1="-15.1243" x2="12.5426" y2="-17.3078" gradientUnits="userSpaceOnUse">
<stop stop-color="#FFE986" stop-opacity="0.88"/>
<stop offset="0.670219" stop-color="#BC7E20"/>
<stop offset="1" stop-color="#A74D01"/>
</linearGradient>
</defs>
</svg>
