<svg width="32" height="32" viewBox="0 0 32 32" fill="none" xmlns="http://www.w3.org/2000/svg">
<path fill-rule="evenodd" clip-rule="evenodd" d="M29.1101 9.65703L16.1369 2.58079C15.7843 2.38974 15.3597 2.38974 15.0071 2.58079L2.03399 9.65703C1.65542 9.86343 1.41954 10.2609 1.41954 10.6925V14.2306C1.41954 14.8828 1.9479 15.41 2.59891 15.41H28.5451C29.1961 15.41 29.7245 14.8828 29.7245 14.2306V10.6925C29.7245 10.2609 29.4886 9.86343 29.1101 9.65703ZM15.5716 11.872C14.2684 11.872 13.2128 10.8165 13.2128 9.51328C13.2128 8.21007 14.2684 7.15453 15.5716 7.15453C16.8748 7.15453 17.9303 8.21007 17.9303 9.51328C17.9303 10.8165 16.8748 11.872 15.5716 11.872ZM27.3658 27.2039H28.5451C29.1961 27.2039 29.7245 27.7311 29.7245 28.3833C29.7245 29.0354 29.1961 29.5626 28.5451 29.5626H2.59891C1.9479 29.5626 1.41954 29.0354 1.41954 28.3833C1.41954 27.7311 1.9479 27.2039 2.59891 27.2039H3.77829V17.7689H6.13703V27.2039H10.8545V17.7689H13.2133V27.2039H17.9308V17.7689H20.2895V27.2039H25.007V17.7689H27.3658V27.2039Z" fill="white"/>
</svg>
