<svg width="32" height="32" viewBox="0 0 32 32" fill="none" xmlns="http://www.w3.org/2000/svg">
<path d="M27.0976 10.1099H26.5527C26.9656 9.45797 27.1841 8.70183 27.1824 7.93016C27.1822 7.20279 26.9892 6.48846 26.6233 5.85986C26.2573 5.23126 25.7313 4.71084 25.0989 4.35156C24.4664 3.99227 23.7501 3.80694 23.0228 3.81444C22.2954 3.82193 21.5831 4.02198 20.9582 4.39423C20.3628 3.55692 19.5167 2.93059 18.5421 2.60575C17.5674 2.2809 16.5147 2.27437 15.5361 2.58709C14.5575 2.89982 13.7036 3.5156 13.098 4.34545C12.4923 5.1753 12.1662 6.17624 12.1667 7.2036C12.1684 7.52885 12.2009 7.85321 12.2636 8.17235H5.3855C4.87164 8.17235 4.37883 8.37648 4.01548 8.73983C3.65213 9.10318 3.448 9.59599 3.448 10.1099V21.7349C3.448 22.2487 3.65213 22.7415 4.01548 23.1049C4.37883 23.4682 4.87164 23.6724 5.3855 23.6724H9.82964C10.4102 25.104 11.4053 26.3295 12.6874 27.1915C13.9694 28.0536 15.4798 28.5127 17.0247 28.5101C18.5696 28.5075 20.0785 28.0433 21.3576 27.1769C22.6367 26.3106 23.6278 25.0818 24.2035 23.6481C25.4113 23.5451 26.5366 22.9929 27.3571 22.1006C28.1777 21.2083 28.6338 20.0408 28.6355 18.8286V11.6477C28.6355 11.4458 28.5957 11.2458 28.5184 11.0592C28.4411 10.8726 28.3279 10.7031 28.1851 10.5603C28.0423 10.4175 27.8727 10.3042 27.6861 10.2269C27.4995 10.1496 27.2996 10.1099 27.0976 10.1099ZM17.0105 4.29735C17.7803 4.30054 18.5177 4.60776 19.062 5.15209C19.6063 5.69643 19.9136 6.4338 19.9167 7.2036C19.9142 7.7815 19.7415 8.34586 19.4203 8.82626C19.2401 8.62139 19.0185 8.45715 18.77 8.34442C18.5216 8.23169 18.2521 8.17304 17.9792 8.17235H14.2738C14.1638 7.86111 14.1065 7.5337 14.1042 7.2036C14.1074 6.4338 14.4147 5.69643 14.959 5.15209C15.5033 4.60776 16.2407 4.30054 17.0105 4.29735ZM10.7136 18.8286V13.9849H9.50269C9.24576 13.9849 8.99935 13.8828 8.81768 13.7011C8.636 13.5194 8.53394 13.273 8.53394 13.0161C8.53394 12.7592 8.636 12.5128 8.81768 12.3311C8.99935 12.1494 9.24576 12.0474 9.50269 12.0474H13.8621C14.119 12.0474 14.3654 12.1494 14.5471 12.3311C14.7287 12.5128 14.8308 12.7592 14.8308 13.0161C14.8308 13.273 14.7287 13.5194 14.5471 13.7011C14.3654 13.8828 14.119 13.9849 13.8621 13.9849H12.6511V18.8286C12.6511 19.0855 12.5491 19.3319 12.3674 19.5136C12.1857 19.6953 11.9393 19.7974 11.6824 19.7974C11.4254 19.7974 11.179 19.6953 10.9974 19.5136C10.8157 19.3319 10.7136 19.0855 10.7136 18.8286ZM22.823 20.7661C22.823 22.3077 22.2106 23.7861 21.1206 24.8762C20.0305 25.9662 18.5521 26.5786 17.0105 26.5786C15.9908 26.5732 14.99 26.3024 14.1068 25.7928C13.2235 25.2832 12.4881 24.5524 11.973 23.6724H17.9792C18.4931 23.6724 18.9859 23.4682 19.3493 23.1049C19.7126 22.7415 19.9167 22.2487 19.9167 21.7349V12.0474H22.823V20.7661ZM23.0652 10.1099C22.74 10.1097 22.4189 10.0367 22.1256 9.8963C21.8322 9.75591 21.574 9.55166 21.3699 9.29852C21.6894 8.64646 21.8552 7.92976 21.8542 7.2036C21.8552 6.86557 21.8187 6.52848 21.7453 6.19852C22.123 5.90628 22.5876 5.74859 23.0652 5.75048C23.6433 5.75048 24.1977 5.98012 24.6065 6.38889C25.0152 6.79766 25.2449 7.35207 25.2449 7.93016C25.2449 8.50825 25.0152 9.06266 24.6065 9.47143C24.1977 9.88021 23.6433 10.1099 23.0652 10.1099ZM26.698 18.8286C26.6964 19.437 26.5038 20.0295 26.1475 20.5227C25.7912 21.0159 25.2892 21.3848 24.7121 21.5774C24.7467 21.3084 24.7628 21.0373 24.7605 20.7661V12.0474H26.698V18.8286Z" fill="white"/>
</svg>
