<svg width="32" height="32" viewBox="0 0 32 32" fill="none" xmlns="http://www.w3.org/2000/svg">
<path d="M20.5708 18.519C24.851 18.519 28.3208 15.0492 28.3208 10.769C28.3208 6.48884 24.851 3.01904 20.5708 3.01904C16.2906 3.01904 12.8208 6.48884 12.8208 10.769C12.8208 15.0492 16.2906 18.519 20.5708 18.519Z" stroke="white" stroke-width="2" stroke-linecap="round" stroke-linejoin="round"/>
<path d="M26.0563 16.2545L15.0852 5.28339" stroke="white" stroke-width="2" stroke-linecap="round" stroke-linejoin="round"/>
<path d="M12.3364 19.0034L10.8833 20.4565" stroke="white" stroke-width="2" stroke-linecap="round" stroke-linejoin="round"/>
<path d="M12.9176 11.9677L3.6297 24.6341C3.49009 24.8199 3.42292 25.0503 3.44075 25.282C3.45857 25.5138 3.56018 25.7311 3.72658 25.8935L5.44611 27.613C5.60842 27.7794 5.82577 27.881 6.05753 27.8988C6.2893 27.9167 6.51963 27.8495 6.70548 27.7099L19.3719 18.422" stroke="white" stroke-width="2" stroke-linecap="round" stroke-linejoin="round"/>
</svg>
