<svg width="32" height="31" viewBox="0 0 32 31" fill="none" xmlns="http://www.w3.org/2000/svg">
<path d="M6.90042 17.985C8.81673 15.2264 9.94394 13.4491 10.7658 12.1356C7.60742 12.415 4.58008 16.3453 4.58008 16.3453L6.66476 18.4301C6.72525 18.276 6.80249 18.1263 6.90042 17.985Z" fill="url(#paint0_linear_1_11057)"/>
<path d="M15.0391 26.8068L17.1224 28.8902C17.1224 28.8902 21.0522 25.8628 21.3316 22.7043C20.0187 23.5259 18.2421 24.6528 15.4828 26.5698C15.3432 26.6666 15.1944 26.7457 15.0391 26.8068Z" fill="url(#paint1_linear_1_11057)"/>
<path d="M11.8706 25.7296C11.513 25.8742 11.1615 26.0277 10.7951 26.1502C9.81637 26.4774 8.80836 26.6984 7.78636 26.8395C7.35797 26.8986 6.92562 26.9487 6.49254 26.9816C6.49667 26.9281 6.50063 26.8746 6.50516 26.8212C6.59452 25.7798 6.75295 24.7438 7.00892 23.7297C7.13225 23.2403 7.28963 22.7645 7.45858 22.2894C7.56363 21.994 7.69473 21.7114 7.82696 21.4287L7.59776 21.1996C7.08801 21.5421 6.64466 21.9748 6.26844 22.4644C5.71146 23.1893 5.29399 24.0106 5.00212 24.876C4.68857 25.8052 4.50159 26.7894 4.47248 27.7705C4.46835 27.9083 4.45889 28.0491 4.48024 28.1859C4.50774 28.3625 4.5853 28.5297 4.70184 28.6652C4.81716 28.7992 4.96896 28.9004 5.13718 28.9547C5.27838 29.0002 5.4204 29.001 5.56686 28.9999C6.45744 28.9924 7.36185 28.8377 8.21434 28.5844C9.77351 28.1211 11.3476 27.2495 12.2702 25.8723L12.0471 25.6494C11.9886 25.6769 11.93 25.7038 11.8706 25.7296Z" fill="url(#paint2_linear_1_11057)"/>
<path d="M29.2137 4.25316C29.2137 4.25316 29.2136 4.25308 29.2134 4.25292C29.0512 4.09076 28.8313 3.99993 28.6024 3.99993C28.5968 3.99993 28.591 4.00001 28.5854 4.00009C25.8025 4.05468 18.9366 4.57523 15.2903 8.222C13.635 9.87739 13.0971 10.7391 11.9179 12.6275C11.0688 13.9871 9.9062 15.8494 7.78149 18.9078C7.54283 19.2516 7.58432 19.7169 7.88023 20.0127L13.4547 25.5877C13.6219 25.7551 13.8435 25.8411 14.0664 25.8411C14.2378 25.8411 14.41 25.7903 14.5594 25.6866C17.6187 23.5612 19.4801 22.3987 20.8391 21.5498C22.7272 20.3707 23.589 19.8325 25.2445 18.1769C28.8973 14.5237 29.4141 7.66165 29.4666 4.88088C29.4712 4.64608 29.3798 4.41946 29.2137 4.25316ZM22.7586 14.7723C21.6364 15.8946 19.817 15.8946 18.6947 14.7723C17.5723 13.6499 17.5725 11.8305 18.6949 10.7082C19.817 9.58581 21.6364 9.58565 22.7586 10.708C23.8806 11.8303 23.8808 13.6501 22.7586 14.7723Z" fill="url(#paint3_linear_1_11057)"/>
<defs>
<linearGradient id="paint0_linear_1_11057" x1="4.35175" y1="4.71715" x2="15.4954" y2="7.25443" gradientUnits="userSpaceOnUse">
<stop stop-color="#FFE986" stop-opacity="0.88"/>
<stop offset="0.670219" stop-color="#BC7E20"/>
<stop offset="1" stop-color="#A74D01"/>
</linearGradient>
<linearGradient id="paint1_linear_1_11057" x1="14.8068" y1="15.4137" x2="26.1031" y2="18.0761" gradientUnits="userSpaceOnUse">
<stop stop-color="#FFE986" stop-opacity="0.88"/>
<stop offset="0.670219" stop-color="#BC7E20"/>
<stop offset="1" stop-color="#A74D01"/>
</linearGradient>
<linearGradient id="paint2_linear_1_11057" x1="4.17875" y1="12.0062" x2="18.2115" y2="15.2587" gradientUnits="userSpaceOnUse">
<stop stop-color="#FFE986" stop-opacity="0.88"/>
<stop offset="0.670219" stop-color="#BC7E20"/>
<stop offset="1" stop-color="#A74D01"/>
</linearGradient>
<linearGradient id="paint3_linear_1_11057" x1="6.82079" y1="-21.7415" x2="46.097" y2="-12.6421" gradientUnits="userSpaceOnUse">
<stop stop-color="#FFE986" stop-opacity="0.88"/>
<stop offset="0.670219" stop-color="#BC7E20"/>
<stop offset="1" stop-color="#A74D01"/>
</linearGradient>
</defs>
</svg>
