<svg width="25" height="25" viewBox="0 0 25 25" fill="none" xmlns="http://www.w3.org/2000/svg">
<path d="M23.39 3.35186C23.39 4.52468 20.0123 5.46294 15.837 5.46294C11.6618 5.46294 8.28406 4.52468 8.28406 3.35186C8.28406 2.17904 11.6618 1.24078 15.837 1.24078C20.0123 1.24078 23.39 2.17904 23.39 3.35186Z" stroke="white" stroke-width="1.7" stroke-miterlimit="10" stroke-linecap="round"/>
<path d="M23.3901 7.10489C23.3901 8.27771 20.0124 9.21597 15.8371 9.21597C15.0396 9.21597 14.289 9.16905 13.5384 9.12214C13.4446 9.12214 8.94096 8.55919 8.89404 8.51227" stroke="white" stroke-width="1.7" stroke-miterlimit="10" stroke-linecap="round"/>
<path d="M23.3901 11.1866C23.3901 12.3125 20.2 13.2507 16.2124 13.2976" stroke="white" stroke-width="1.7" stroke-miterlimit="10" stroke-linecap="round"/>
<path d="M23.39 15.2676C23.39 16.3935 20.2468 17.2849 16.3062 17.3787" stroke="white" stroke-width="1.7" stroke-miterlimit="10" stroke-linecap="round"/>
<path d="M8.28406 4.00851V8.79362" stroke="white" stroke-width="1.7" stroke-miterlimit="10" stroke-linecap="round"/>
<path d="M23.39 4.00851V15.2207" stroke="white" stroke-width="1.7" stroke-miterlimit="10" stroke-linecap="round"/>
<path d="M16.1186 16.3001C16.1186 20.4284 12.7877 23.7592 8.65942 23.7592C4.578 23.7592 1.24719 20.4284 1.24719 16.3001C1.24719 12.1717 4.578 8.84091 8.70633 8.84091C12.7877 8.88782 16.1186 12.2186 16.1186 16.3001Z" stroke="white" stroke-width="1.7" stroke-miterlimit="10" stroke-linecap="round"/>
<mask id="path-8-inside-1_1_10609" fill="white">
<path d="M8.28403 21.1318V19.959C7.62725 19.959 6.92356 19.7244 6.50134 19.443L6.78282 18.6455C7.20504 18.9269 7.8149 19.1615 8.47168 19.1615C9.31611 19.1615 9.87907 18.6924 9.87907 18.0356C9.87907 17.3788 9.40994 17.0035 8.56551 16.6282C7.34577 16.1591 6.64208 15.643 6.64208 14.6109C6.64208 13.6258 7.34577 12.9221 8.42477 12.7344V11.5616H9.12846V12.6875C9.83215 12.6875 10.3013 12.8752 10.6297 13.1097L10.3482 13.8603C10.1136 13.7196 9.6445 13.485 8.8939 13.485C8.00255 13.485 7.67416 14.0011 7.67416 14.4702C7.67416 15.0801 8.09638 15.3616 9.12846 15.7838C10.3482 16.2998 10.9581 16.8628 10.9581 17.9418C10.9581 18.88 10.3013 19.7244 9.12846 19.9121V21.1318H8.28403Z"/>
</mask>
<path d="M8.28403 21.1318H6.58403V22.8318H8.28403V21.1318ZM8.28403 19.959H9.98403V18.259H8.28403V19.959ZM6.50134 19.443L4.89826 18.8772L4.4582 20.124L5.55835 20.8575L6.50134 19.443ZM6.78282 18.6455L7.72581 17.231L5.90719 16.0185L5.17974 18.0797L6.78282 18.6455ZM8.56551 16.6282L9.25594 15.0747L9.21628 15.0571L9.17577 15.0415L8.56551 16.6282ZM8.42477 12.7344L8.71605 14.4093L10.1248 14.1643V12.7344H8.42477ZM8.42477 11.5616V9.86161H6.72477V11.5616H8.42477ZM9.12846 11.5616H10.8285V9.86161H9.12846V11.5616ZM9.12846 12.6875H7.42846V14.3875H9.12846V12.6875ZM10.6297 13.1097L12.2214 13.7066L12.6796 12.4848L11.6178 11.7264L10.6297 13.1097ZM10.3482 13.8603L9.47355 15.3181L11.2234 16.368L11.94 14.4573L10.3482 13.8603ZM9.12846 15.7838L9.79085 14.2181L9.78152 14.2142L9.77214 14.2103L9.12846 15.7838ZM9.12846 19.9121L8.85988 18.2334L7.42846 18.4625V19.9121H9.12846ZM9.12846 21.1318V22.8318H10.8285V21.1318H9.12846ZM9.98403 21.1318V19.959H6.58403V21.1318H9.98403ZM8.28403 18.259C8.14859 18.259 7.97503 18.2331 7.79603 18.1791C7.6124 18.1237 7.49011 18.059 7.44433 18.0285L5.55835 20.8575C6.26142 21.3262 7.29356 21.659 8.28403 21.659V18.259ZM8.10443 20.0088L8.3859 19.2112L5.17974 18.0797L4.89826 18.8772L8.10443 20.0088ZM5.83983 20.0599C6.49719 20.4982 7.42992 20.8615 8.47168 20.8615V17.4615C8.19988 17.4615 7.91288 17.3557 7.72581 17.231L5.83983 20.0599ZM8.47168 20.8615C9.1977 20.8615 9.95229 20.6595 10.5617 20.1661C11.1958 19.6528 11.5791 18.8908 11.5791 18.0356H8.17907C8.17907 17.9523 8.19805 17.8506 8.24764 17.7481C8.29674 17.6467 8.36239 17.5721 8.4224 17.5235C8.53919 17.429 8.5901 17.4615 8.47168 17.4615V20.8615ZM11.5791 18.0356C11.5791 17.2269 11.2612 16.5444 10.741 16.0243C10.2901 15.5733 9.72556 15.2834 9.25594 15.0747L7.87507 18.1817C8.04765 18.2584 8.16671 18.3201 8.2485 18.3695C8.33075 18.4191 8.34924 18.4408 8.33687 18.4284C8.31932 18.4109 8.27045 18.3554 8.23002 18.261C8.1886 18.1644 8.17907 18.0806 8.17907 18.0356H11.5791ZM9.17577 15.0415C8.91234 14.9402 8.716 14.8511 8.56895 14.7703C8.42193 14.6895 8.3531 14.6327 8.32642 14.6069C8.30638 14.5876 8.32162 14.5975 8.33658 14.6328C8.35121 14.6674 8.34208 14.671 8.34208 14.6109H4.94208C4.94208 15.5853 5.30338 16.4151 5.96636 17.0544C6.54908 17.6163 7.29529 17.9611 7.95524 18.2149L9.17577 15.0415ZM8.34208 14.6109C8.34208 14.5893 8.34399 14.5755 8.34532 14.5684C8.34601 14.5647 8.34665 14.5623 8.34704 14.5609C8.34744 14.5595 8.34768 14.5589 8.34769 14.5589C8.34769 14.5589 8.34759 14.5591 8.3474 14.5595C8.3472 14.5599 8.34706 14.5601 8.34708 14.5601C8.34711 14.56 8.34745 14.5595 8.34829 14.5585C8.34912 14.5574 8.35061 14.5557 8.35293 14.5532C8.36822 14.5374 8.46245 14.4534 8.71605 14.4093L8.13349 11.0596C6.44518 11.3532 4.94208 12.6073 4.94208 14.6109H8.34208ZM10.1248 12.7344V11.5616H6.72477V12.7344H10.1248ZM8.42477 13.2616H9.12846V9.86161H8.42477V13.2616ZM7.42846 11.5616V12.6875H10.8285V11.5616H7.42846ZM9.12846 14.3875C9.3275 14.3875 9.44966 14.4138 9.51714 14.4347C9.58234 14.4548 9.61879 14.4768 9.64157 14.4931L11.6178 11.7264C10.9821 11.2723 10.1624 10.9875 9.12846 10.9875V14.3875ZM9.03791 12.5128L8.75644 13.2634L11.94 14.4573L12.2214 13.7066L9.03791 12.5128ZM11.2228 12.4026C10.8033 12.1509 10.0335 11.785 8.8939 11.785V15.185C9.08787 15.185 9.2197 15.2147 9.30075 15.2404C9.38159 15.266 9.43522 15.2951 9.47355 15.3181L11.2228 12.4026ZM8.8939 11.785C8.11518 11.785 7.34736 12.0178 6.76633 12.5813C6.19538 13.1349 5.97416 13.846 5.97416 14.4702H9.37416C9.37416 14.6253 9.31715 14.8438 9.13322 15.0221C8.93922 15.2103 8.78127 15.185 8.8939 15.185V11.785ZM5.97416 14.4702C5.97416 15.2875 6.30925 15.9792 6.91328 16.4927C7.38023 16.8896 7.98422 17.1524 8.48479 17.3572L9.77214 14.2103C9.53144 14.1119 9.36463 14.037 9.2452 13.9754C9.12304 13.9123 9.09727 13.8867 9.11528 13.9021C9.14361 13.9261 9.22764 14.0071 9.29531 14.1513C9.36381 14.2974 9.37416 14.4199 9.37416 14.4702H5.97416ZM8.46607 17.3494C9.00135 17.5759 9.18164 17.7271 9.23489 17.7865C9.24416 17.7968 9.2463 17.8009 9.24528 17.7992C9.2441 17.7973 9.24332 17.7953 9.2435 17.7958C9.24381 17.7967 9.24718 17.8061 9.25063 17.8278C9.25418 17.8501 9.25806 17.8869 9.25806 17.9418H12.6581C12.6581 17.0361 12.3842 16.2059 11.7664 15.5168C11.2098 14.896 10.4753 14.5077 9.79085 14.2181L8.46607 17.3494ZM9.25806 17.9418C9.25806 18.0073 9.23816 18.0499 9.20897 18.0829C9.18253 18.1129 9.09359 18.1961 8.85988 18.2334L9.39704 21.5907C11.3427 21.2794 12.6581 19.7667 12.6581 17.9418H9.25806ZM7.42846 19.9121V21.1318H10.8285V19.9121H7.42846ZM9.12846 19.4318H8.28403V22.8318H9.12846V19.4318Z" fill="white" mask="url(#path-8-inside-1_1_10609)"/>
</svg>
