<svg width="33" height="32" viewBox="0 0 33 32" fill="none" xmlns="http://www.w3.org/2000/svg">
<path d="M8.6123 18H24.3123C24.7798 18.0014 25.2328 17.838 25.5917 17.5385C25.9506 17.2391 26.1925 16.8227 26.2748 16.3625L27.7998 8H6.7998" stroke="url(#paint0_linear_1_20419)" stroke-width="1.5" stroke-linecap="round" stroke-linejoin="round"/>
<path d="M8.6123 18H24.3123C24.7798 18.0014 25.2328 17.838 25.5917 17.5385C25.9506 17.2391 26.1925 16.8227 26.2748 16.3625L27.7998 8H6.7998" stroke="#D1D2D7" stroke-opacity="0.3" stroke-width="1.5" stroke-linecap="round" stroke-linejoin="round"/>
<path d="M23.7998 28C25.1805 28 26.2998 26.8807 26.2998 25.5C26.2998 24.1193 25.1805 23 23.7998 23C22.4191 23 21.2998 24.1193 21.2998 25.5C21.2998 26.8807 22.4191 28 23.7998 28Z" stroke="#D5B690" stroke-width="1.3" stroke-linecap="round" stroke-linejoin="round"/>
<path d="M10.7998 28C12.1805 28 13.2998 26.8807 13.2998 25.5C13.2998 24.1193 12.1805 23 10.7998 23C9.41909 23 8.2998 24.1193 8.2998 25.5C8.2998 26.8807 9.41909 28 10.7998 28Z" stroke="url(#paint1_linear_1_20419)" stroke-width="1.3" stroke-linecap="round" stroke-linejoin="round"/>
<path d="M10.7998 28C12.1805 28 13.2998 26.8807 13.2998 25.5C13.2998 24.1193 12.1805 23 10.7998 23C9.41909 23 8.2998 24.1193 8.2998 25.5C8.2998 26.8807 9.41909 28 10.7998 28Z" stroke="#D1D2D7" stroke-opacity="0.5" stroke-width="1.3" stroke-linecap="round" stroke-linejoin="round"/>
<path d="M23.7998 23H9.5248L6.0373 3.825C5.9965 3.59537 5.87671 3.38722 5.69867 3.23657C5.52063 3.08592 5.29552 3.00223 5.0623 3H2.7998" stroke="url(#paint2_linear_1_20419)" stroke-width="1.5" stroke-linecap="round" stroke-linejoin="round"/>
<path d="M23.7998 23H9.5248L6.0373 3.825C5.9965 3.59537 5.87671 3.38722 5.69867 3.23657C5.52063 3.08592 5.29552 3.00223 5.0623 3H2.7998" stroke="#AEAEAE" stroke-opacity="0.5" stroke-width="1.5" stroke-linecap="round" stroke-linejoin="round"/>
<defs>
<linearGradient id="paint0_linear_1_20419" x1="27.7998" y1="18" x2="22.0879" y2="8.65527" gradientUnits="userSpaceOnUse">
<stop stop-color="#ECAF5A"/>
<stop offset="1" stop-color="#89683D"/>
</linearGradient>
<linearGradient id="paint1_linear_1_20419" x1="13.2998" y1="28" x2="10.1883" y2="25.5759" gradientUnits="userSpaceOnUse">
<stop stop-color="#ECAF5A"/>
<stop offset="1" stop-color="#89683D"/>
</linearGradient>
<linearGradient id="paint2_linear_1_20419" x1="23.7998" y1="23" x2="11.2184" y2="12.7084" gradientUnits="userSpaceOnUse">
<stop stop-color="#ECAF5A"/>
<stop offset="1" stop-color="#89683D"/>
</linearGradient>
</defs>
</svg>
