<svg width="24" height="23" viewBox="0 0 24 23" fill="none" xmlns="http://www.w3.org/2000/svg">
<path d="M12.0477 0.341675C12.5159 0.341675 12.8955 0.721252 12.8955 1.18949V2.60238H21.091C22.3396 2.60238 23.3518 3.61458 23.3518 4.8632V17.0896C23.3518 18.3383 22.3396 19.3505 21.091 19.3505H5.54519C5.26977 19.3505 5.00383 19.451 4.7973 19.6332L2.15226 21.967C1.60482 22.45 0.74353 22.0613 0.74353 21.3313V4.8632C0.74353 3.61458 1.75574 2.60238 3.00436 2.60238H11.1999V1.18948C11.1999 0.721252 11.5794 0.341675 12.0477 0.341675ZM6.9608 10.5126C7.89727 10.5126 8.65642 9.75372 8.65642 8.81757C8.65642 7.88142 7.89727 7.12252 6.9608 7.12252C6.02434 7.12252 5.26518 7.88142 5.26518 8.81757C5.26518 9.75372 6.02434 10.5126 6.9608 10.5126ZM16.9709 10.5126C17.9073 10.5126 18.6665 9.75372 18.6665 8.81757C18.6665 7.88142 17.9073 7.12252 16.9709 7.12252C16.0344 7.12252 15.2753 7.88142 15.2753 8.81757C15.2753 9.75372 16.0344 10.5126 16.9709 10.5126ZM10.2566 12.9183C9.86685 12.6588 9.34054 12.7644 9.08106 13.1542C8.82159 13.544 8.92721 14.0703 9.31697 14.3297C10.0114 14.7921 11.0111 15.037 12.0476 15.037C13.0842 15.037 14.0838 14.7921 14.7783 14.3297C15.168 14.0703 15.2736 13.544 15.0142 13.1542C14.7547 12.7644 14.2284 12.6588 13.8386 12.9183C13.502 13.1424 12.8601 13.3414 12.0476 13.3414C11.2352 13.3414 10.5932 13.1424 10.2566 12.9183Z" fill="white"/>
</svg>
