<svg width="31" height="14" viewBox="0 0 31 14" fill="none" xmlns="http://www.w3.org/2000/svg">
<path d="M12.9347 9.79309L11.8812 10.9798C11.0696 11.79 10.0361 12.3414 8.91117 12.5644C7.78628 12.7874 6.62054 12.6719 5.56125 12.2326C4.50195 11.7933 3.59666 11.0499 2.95975 10.0962C2.32284 9.14256 1.98291 8.02151 1.98291 6.87473C1.98291 5.72796 2.32284 4.60691 2.95975 3.65326C3.59666 2.69961 4.50195 1.95616 5.56125 1.51684C6.62054 1.07753 7.78628 0.962068 8.91117 1.18506C10.0361 1.40804 11.0696 1.95947 11.8812 2.76966L19.1711 10.9798C19.9827 11.79 21.0162 12.3414 22.1411 12.5644C23.266 12.7874 24.4317 12.6719 25.491 12.2326C26.5503 11.7933 27.4556 11.0499 28.0925 10.0962C28.7294 9.14256 29.0694 8.02151 29.0694 6.87473C29.0694 5.72796 28.7294 4.60691 28.0925 3.65326C27.4556 2.69961 26.5503 1.95616 25.491 1.51684C24.4317 1.07753 23.266 0.962068 22.1411 1.18506C21.0162 1.40804 19.9827 1.95947 19.1711 2.76966L18.1175 3.95638" stroke="white" stroke-width="2" stroke-linecap="round" stroke-linejoin="round"/>
</svg>
