<svg width="28" height="28" viewBox="0 0 28 28" fill="none" xmlns="http://www.w3.org/2000/svg">
<path d="M25.4271 10.9484C24.9669 10.4762 24.4947 9.97969 24.313 9.55586C24.1314 9.13203 24.1435 8.50234 24.1314 7.86055C24.1193 6.68594 24.0951 5.3418 23.1626 4.40937C22.2302 3.47695 20.8861 3.45273 19.7115 3.44062C19.0697 3.42852 18.4158 3.41641 18.0162 3.25898C17.6166 3.10156 17.0958 2.60508 16.6236 2.14492C15.788 1.3457 14.8314 0.4375 13.572 0.4375C12.3126 0.4375 11.356 1.3457 10.5205 2.14492C10.0482 2.60508 9.55171 3.07734 9.12788 3.25898C8.70405 3.44062 8.07437 3.42852 7.43257 3.44062C6.25796 3.45273 4.91382 3.47695 3.9814 4.40937C3.04897 5.3418 3.02476 6.68594 3.01265 7.86055C3.00054 8.50234 2.98843 9.15625 2.83101 9.55586C2.67358 9.95547 2.1771 10.4762 1.71694 10.9484C0.917725 11.784 0.00952148 12.7406 0.00952148 14C0.00952148 15.2594 0.917725 16.216 1.71694 17.0516C2.1771 17.5238 2.64937 18.0203 2.83101 18.4441C3.01265 18.868 3.00054 19.4977 3.01265 20.1395C3.02476 21.3141 3.04897 22.6582 3.9814 23.5906C4.91382 24.523 6.25796 24.5473 7.43257 24.5594C8.07437 24.5715 8.72827 24.5836 9.12788 24.741C9.52749 24.8984 10.0482 25.3949 10.5205 25.8551C11.356 26.6543 12.3126 27.5625 13.572 27.5625C14.8314 27.5625 15.788 26.6543 16.6236 25.8551C17.0958 25.3949 17.5923 24.9227 18.0162 24.741C18.44 24.5594 19.0697 24.5715 19.7115 24.5594C20.8861 24.5473 22.2302 24.523 23.1626 23.5906C24.0951 22.6582 24.1193 21.3141 24.1314 20.1395C24.1435 19.4977 24.1556 18.8438 24.313 18.4441C24.4705 18.0445 24.9669 17.5238 25.4271 17.0516C26.2263 16.216 27.1345 15.2594 27.1345 14C27.1345 12.7406 26.2263 11.784 25.4271 10.9484ZM19.5662 11.7961L12.4701 18.5773C12.2866 18.7499 12.0438 18.8453 11.7919 18.8438C11.5438 18.8447 11.305 18.7492 11.1259 18.5773L7.57788 15.1867C7.47947 15.1009 7.39944 14.996 7.34259 14.8784C7.28574 14.7608 7.25326 14.633 7.24709 14.5025C7.24091 14.3721 7.26118 14.2417 7.30667 14.1193C7.35217 13.9969 7.42194 13.8849 7.51181 13.7902C7.60167 13.6954 7.70977 13.6198 7.8296 13.5678C7.94944 13.5159 8.07853 13.4888 8.20913 13.488C8.33972 13.4872 8.46913 13.5129 8.58956 13.5634C8.70998 13.614 8.81895 13.6883 8.90991 13.782L11.7919 16.5309L18.2341 10.3914C18.4225 10.2271 18.6671 10.1419 18.9168 10.1537C19.1665 10.1655 19.4019 10.2734 19.574 10.4548C19.746 10.6362 19.8412 10.877 19.8397 11.127C19.8383 11.377 19.7403 11.6167 19.5662 11.7961Z" fill="white"/>
</svg>
