<svg width="24" height="27" viewBox="0 0 24 27" fill="none" xmlns="http://www.w3.org/2000/svg">
<path d="M0.371399 3.1C0.371399 1.66406 1.53546 0.5 2.9714 0.5H21.1714C22.6073 0.5 23.7714 1.66406 23.7714 3.1V23.9C23.7714 25.3359 22.6073 26.5 21.1714 26.5H2.9714C1.53546 26.5 0.371399 25.3359 0.371399 23.9V3.1ZM4.2714 5.7V8.3C4.2714 8.65898 4.56241 8.95 4.9214 8.95H7.5214C7.88038 8.95 8.1714 8.65898 8.1714 8.3V5.7C8.1714 5.34101 7.88038 5.05 7.5214 5.05H4.9214C4.56241 5.05 4.2714 5.34101 4.2714 5.7ZM11.7464 6.025C11.2079 6.025 10.7714 6.46152 10.7714 7C10.7714 7.53848 11.2079 7.975 11.7464 7.975H18.8964C19.4349 7.975 19.8714 7.53848 19.8714 7C19.8714 6.46152 19.4349 6.025 18.8964 6.025H11.7464ZM4.2714 12.2V14.8C4.2714 15.159 4.56241 15.45 4.9214 15.45H7.5214C7.88038 15.45 8.1714 15.159 8.1714 14.8V12.2C8.1714 11.841 7.88038 11.55 7.5214 11.55H4.9214C4.56241 11.55 4.2714 11.841 4.2714 12.2ZM11.7464 12.525C11.2079 12.525 10.7714 12.9615 10.7714 13.5C10.7714 14.0385 11.2079 14.475 11.7464 14.475H18.8964C19.4349 14.475 19.8714 14.0385 19.8714 13.5C19.8714 12.9615 19.4349 12.525 18.8964 12.525H11.7464ZM4.2714 18.7V21.3C4.2714 21.659 4.56241 21.95 4.9214 21.95H7.5214C7.88038 21.95 8.1714 21.659 8.1714 21.3V18.7C8.1714 18.341 7.88038 18.05 7.5214 18.05H4.9214C4.56241 18.05 4.2714 18.341 4.2714 18.7ZM11.7464 19.025C11.2079 19.025 10.7714 19.4615 10.7714 20C10.7714 20.5385 11.2079 20.975 11.7464 20.975H18.8964C19.4349 20.975 19.8714 20.5385 19.8714 20C19.8714 19.4615 19.4349 19.025 18.8964 19.025H11.7464Z" fill="white"/>
</svg>
